<svg xmlns="http://www.w3.org/2000/svg" xmlns:xlink="http://www.w3.org/1999/xlink" viewBox="0 0 1271.9 321.98">
  <defs>
    <style>
      .cls-1 {
        clip-path: url(#clip-Web_1920_1);
      }

      .cls-2 {
        opacity: 0.54;
      }

      .cls-3 {
        fill: #4d5858;
      }

      .cls-4 {
        fill: none;
        stroke: #4d5858;
        stroke-miterlimit: 10;
        stroke-width: 2.03px;
      }

      .cls-5 {
        fill: #6abf4b;
      }

      .cls-6 {
        fill: #fff;
      }
    </style>
    <clipPath id="clip-Web_1920_1">
      <rect width="1271.9" height="321.98"/>
    </clipPath>
  </defs>
  <g id="Web_1920_1" data-name="Web 1920 – 1" class="cls-1">
    <rect class="cls-6" width="1271.9" height="321.98"/>
    <g id="PTCU_Logo_Color" transform="translate(-263.92 -136.83)">
      <g id="Group_1" data-name="Group 1" class="cls-2">
        <path id="Path_1" data-name="Path 1" class="cls-3" d="M1076.72,349.74v-9a28.73,28.73,0,0,1-7.61,7,18.5,18.5,0,0,1-10.26,2.89,27.26,27.26,0,0,1-9.91-1.62,20,20,0,0,1-7.26-4.84q-7.15-7-7.15-18.56v-33.5h8.65v33.31q0,7.95,4.49,12.68a15.36,15.36,0,0,0,11.65,4.73,17.22,17.22,0,0,0,12.33-4.84,17,17,0,0,0,5.07-12.68v-33.2h8.65v57.63Z"/>
        <path id="Path_2" data-name="Path 2" class="cls-3" d="M1111.3,292.11v9a28.89,28.89,0,0,1,7.61-7,18.6,18.6,0,0,1,10.26-2.88,27.48,27.48,0,0,1,9.91,1.61,20.091,20.091,0,0,1,7.26,4.84q7.15,7,7.15,18.56v33.54h-8.65V316.43q0-7.95-4.49-12.68a15.35,15.35,0,0,0-11.64-4.72,17.21,17.21,0,0,0-12.34,4.84,17,17,0,0,0-5.07,12.68v33.19h-8.64V292.11Z"/>
        <path id="Path_3" data-name="Path 3" class="cls-3" d="M1174.47,270.9a5.79,5.79,0,0,1,4.26,1.73,5.671,5.671,0,0,1,1.73,4.15,6,6,0,1,1-12,0,5.67,5.67,0,0,1,1.73-4.15,5.81,5.81,0,0,1,4.28-1.73Zm-4.27,21.21h8.65v57.63h-8.65Z"/>
        <path id="Path_4" data-name="Path 4" class="cls-3" d="M1244.43,292.11,1222,349.74h-10.15l-22.59-57.63h9.45l18.21,48.41,18.1-48.41Z"/>
        <path id="Path_5" data-name="Path 5" class="cls-3" d="M1279.82,342.83q11.64,0,16.71-9.69H1306a27.779,27.779,0,0,1-9.51,12.68q-6.52,4.85-16.77,4.85-13,0-21.21-8.65-8-8.41-8-21.09t7.61-21.1q8.07-8.64,21-8.64t21,8.64q7.61,8.31,7.6,21.1v3.45h-48.29a20.81,20.81,0,0,0,6.34,13.14,19.469,19.469,0,0,0,14.05,5.31Zm-.69-43.8a19.08,19.08,0,0,0-13.37,5,20.49,20.49,0,0,0-6.23,12.34h39.19A20.43,20.43,0,0,0,1292.5,304a19.081,19.081,0,0,0-13.37-5Z"/>
        <path id="Path_6" data-name="Path 6" class="cls-3" d="M1351.05,291.19v8.64h-1a18.48,18.48,0,0,0-15.22,7.49,27.06,27.06,0,0,0-5.53,17.06v25.36h-8.65V292.11h8.65v14.18q2.76-9,12-13.26a21,21,0,0,1,9.22-1.84Z"/>
        <path id="Path_7" data-name="Path 7" class="cls-3" d="M1396.58,307.55q-1.14-9-14.46-9t-13.32,8.3a5.83,5.83,0,0,0,2.83,5.25,25.869,25.869,0,0,0,7.09,2.94q4.26,1.15,9.28,2.13a47.641,47.641,0,0,1,9.28,2.77,19.692,19.692,0,0,1,7.09,4.9q2.82,3.11,2.82,8.52,0,8.43-6.34,12.86t-17.18,4.44q-11.52,0-18.32-5.77a17.66,17.66,0,0,1-6.69-13.25h9q.81,8,9,10.72a20.29,20.29,0,0,0,5.94.92,40.587,40.587,0,0,0,5.47-.35,22,22,0,0,0,5-1.27q5.54-2.18,5.53-7.49a6.19,6.19,0,0,0-2.82-5.47,24.8,24.8,0,0,0-7.09-3.12c-2.84-.8-5.94-1.53-9.28-2.19a50.551,50.551,0,0,1-9.28-2.7A20,20,0,0,1,1363,316c-1.88-2-2.82-4.76-2.82-8.3q0-7.83,5.71-12.16t16.88-4.32q10.61,0,16.72,5.07a16.609,16.609,0,0,1,5.87,11.29Z"/>
        <path id="Path_8" data-name="Path 8" class="cls-3" d="M1424.82,270.9a5.81,5.81,0,0,1,4.27,1.73,5.67,5.67,0,0,1,1.73,4.15,6,6,0,1,1-12,0,5.67,5.67,0,0,1,1.73-4.15A5.79,5.79,0,0,1,1424.82,270.9Zm-4.26,21.21h8.64v57.63h-8.64Z"/>
        <path id="Path_9" data-name="Path 9" class="cls-3" d="M1452.72,349.74v-50H1441v-7.61h11.76V271.48h8.64v20.63h13.26v7.61H1461.4v50Z"/>
        <path id="Path_10" data-name="Path 10" class="cls-3" d="M1501.71,372.57h-9.34l10.49-23.63-23.52-56.83h9.57l18.56,47.26,18.9-47.26h9.45Z"/>
      </g>
      <path id="Path_11" data-name="Path 11" class="cls-3" d="M820,293.53q8-11.77,24-11.77,14.44,0,23.42,10t9,24.5q0,14.58-9,24.49t-24.09,10q-15.13,0-23.29-11.91v37.34H810V282.83h10Zm22.62-2.67q-10.85,0-17.13,7.49-6,7.09-6,17.94t6,17.93q6.29,7.5,17.13,7.49t17.4-7.49q6.29-7.1,6.29-17.93T860,298.35q-6.67-7.48-17.37-7.49Z"/>
      <path id="Path_12" data-name="Path 12" class="cls-3" d="M895.49,349.74V291.66H881.84v-8.83h13.65v-24h10v24h15.39v8.83H905.53v58.08Z"/>
      <path id="Path_13" data-name="Path 13" class="cls-3" d="M961.47,341.71a18.82,18.82,0,0,0,11.38-3.61,20.79,20.79,0,0,0,7.22-9.37h10.84a30.56,30.56,0,0,1-11.24,15.93,34,34,0,0,1-20.34,6.15q-14.73,0-24-10-9-9.78-9-24.49t9-24.5q9.24-10,24-10a34,34,0,0,1,20.34,6.15,30.56,30.56,0,0,1,11.24,15.93H980.07a20.79,20.79,0,0,0-7.22-9.37,18.82,18.82,0,0,0-11.38-3.61,26.78,26.78,0,0,0-10.91,2,21.881,21.881,0,0,0-7.56,5.49q-6.56,7.23-6.56,17.94T943,334.22Q949.69,341.72,961.47,341.71Z"/>
      <line id="Line_1" data-name="Line 1" class="cls-4" y2="321.98" transform="translate(676.73 136.83)"/>
      <path id="Path_14" data-name="Path 14" class="cls-5" d="M320,276.31h0v57.22l67.88,41.7,67.88-41.7V276.31l-67.88,39.5L320,276.31"/>
      <path id="Path_15" data-name="Path 15" class="cls-3" d="M481.72,264.69V349l-93.58,54-93.59-54V265.17l-30.63-17.32v118.8l124.22,71.74,124.21-71.74V248.32Zm-181-20.21L388.14,295l92.46-53.4v-.14l31.72-18.2L388.14,151.5,264.81,222.73l35.9,21.71Z"/>
    </g>
  </g>
</svg>
